<svg width="140" height="125" viewBox="0 0 140 125" fill="none" xmlns="http://www.w3.org/2000/svg">
<path d="M52.8372 65.2917C52.8372 61.928 48.3498 58.9948 41.6526 57.3722C48.3436 55.7496 52.8372 52.8165 52.8372 49.4527C52.8372 44.3415 42.5044 40.1976 29.7519 40.1976C16.9994 40.1976 6.6666 44.3415 6.6666 49.4527C6.6666 52.8165 11.154 55.7496 17.8451 57.3722C11.154 58.9948 6.6666 61.928 6.6666 65.2917C6.6666 68.7304 11.3577 71.726 18.3019 73.3236C11.3392 74.915 6.63574 77.9168 6.63574 81.3617C6.63574 86.4729 16.9686 90.6167 29.7211 90.6167C42.4735 90.6167 52.8064 86.4729 52.8064 81.3617C52.8064 77.923 48.1153 74.9275 41.1711 73.3361C48.1338 71.7384 52.8372 68.7429 52.8372 65.2917Z" fill="white"/>
<path d="M53.5409 45.4399C53.3557 45.1404 53.1459 44.8408 52.8804 44.5537C52.5471 44.1356 52.1336 43.7362 51.6706 43.3493C51.5225 43.2307 51.3558 43.0996 51.1892 42.9686C51.041 42.85 50.862 42.719 50.6954 42.6004C49.4732 41.7329 47.9856 40.9466 46.282 40.2601C45.7203 40.0417 45.1401 39.842 44.529 39.6423C43.8809 39.4238 43.2081 39.2241 42.5106 39.0431C41.8501 38.8559 41.1526 38.6874 40.4428 38.5376C40.0971 38.469 39.7144 38.3879 39.3502 38.3192C38.6712 38.2006 37.9923 38.0883 37.2824 37.9822C37.0849 37.951 36.8997 37.9323 36.7022 37.9011C36.0417 37.82 35.3813 37.7513 34.7023 37.6827C33.0974 37.5516 31.4308 37.4642 29.7272 37.4642C19.4746 37.4642 10.6911 40.2039 6.93818 44.1169C5.6975 45.4212 5 46.8628 5 48.3668C5 48.3668 5 54.2207 5 57.1102C5 58.5143 5.61108 59.8686 6.72214 61.1042C5.61108 62.3462 5 63.7004 5 65.1046C5 65.1046 5 70.9709 5 73.8666C5 75.2895 5.61108 76.625 6.72214 77.8669C5.61725 79.1026 5 80.4568 5 81.861C5 81.861 5 87.7273 5 90.623C5 90.8539 5.01852 91.1098 5.0679 91.3407C5.0679 91.3719 5.0679 91.4094 5.08642 91.4219C5.12345 91.659 5.17283 91.8899 5.25307 92.1271C5.40122 92.6263 5.6296 93.1131 5.95057 93.5812C6.09871 93.8308 6.28389 94.0492 6.46289 94.2864C6.66041 94.5235 6.85794 94.7544 7.07398 94.9729C7.30853 95.1913 7.53692 95.4097 7.78382 95.6281C8.04924 95.8778 8.34552 96.0962 8.6418 96.3333C8.66032 96.3333 8.66032 96.3521 8.66032 96.3521C12.7465 99.2603 19.8573 101.27 28.0792 101.501C28.6223 101.532 29.1717 101.532 29.7334 101.532C30.0667 101.532 30.3753 101.532 30.7087 101.513C31.2518 101.513 31.8012 101.494 32.332 101.482C34.943 101.351 37.4429 101.045 39.7391 100.596C48.4239 98.9045 54.4606 95.0602 54.4606 90.6293V85.4931C54.4606 83.5335 54.4606 81.8673 54.4606 81.8673C54.4606 80.4631 53.8495 79.1088 52.7385 77.8732C53.8434 76.6375 54.4606 75.2957 54.4606 73.8728V73.5733C54.4606 70.9147 54.4606 65.1108 54.4606 65.1108C54.4606 63.7066 53.8495 62.3524 52.7385 61.1105C53.5841 60.1744 54.1273 59.1696 54.3433 58.1149C54.3742 57.9839 54.4112 57.8466 54.4112 57.7155C54.4421 57.5158 54.4606 57.3161 54.4606 57.1102V54.9883C54.4606 52.13 54.4606 48.3668 54.4606 48.3668C54.4544 47.3496 54.1396 46.376 53.5409 45.4399ZM39.8317 88.5823C39.8317 88.5823 39.8317 88.5823 39.8132 88.5823C38.6898 88.8319 37.517 89.0504 36.2578 89.2001C34.2394 89.4685 32.0543 89.6183 29.7272 89.6183C29.1655 89.6183 28.6162 89.5996 28.073 89.5871C15.9995 89.2189 8.11096 84.8191 8.11096 81.861C8.11096 81.5427 8.20972 81.212 8.3949 80.875C8.56156 80.538 8.78994 80.2259 9.12326 79.8889C13.2712 82.6473 20.1536 84.5196 28.0792 84.7567C28.6223 84.7754 29.1717 84.7754 29.7334 84.7754H30.3074C30.9864 84.7567 31.6654 84.7442 32.3259 84.7068C34.9183 84.5882 37.3874 84.3074 39.6835 83.8518C44.0537 82.9968 47.7387 81.6301 50.3374 79.8889C50.6028 80.1386 50.8003 80.3882 50.9484 80.6441C51.2139 81.0622 51.3435 81.4803 51.3435 81.861C51.3435 82.9344 50.3312 84.1701 48.4979 85.3371C46.5166 86.5915 43.5537 87.796 39.8317 88.5823ZM8.38873 47.3621C9.92569 44.3665 18.0673 40.6033 29.7272 40.6033C41.0909 40.6033 49.1275 44.1793 50.9484 47.1437C51.2139 47.5618 51.3435 47.9612 51.3435 48.3606C51.3435 50.5511 46.9301 53.5779 39.6465 55.1193C36.7516 55.7372 33.4307 56.1054 29.721 56.1054C26.0175 56.1054 22.6782 55.7372 19.7832 55.1193C12.512 53.5841 8.11096 50.5574 8.11096 48.3668C8.11096 48.0486 8.20972 47.7178 8.38873 47.3621ZM8.38873 64.1185C8.55539 63.7815 8.78377 63.4632 9.11709 63.1325C13.265 65.8909 20.1474 67.7631 28.073 68.0003C28.6162 68.019 29.1655 68.019 29.7272 68.019H29.9124C30.721 68.019 31.5296 68.0003 32.3259 67.9504C39.8502 67.6196 46.3684 65.7786 50.3374 63.1325C50.6028 63.3821 50.8003 63.6505 50.9484 63.9001C51.2139 64.3182 51.3435 64.7176 51.3435 65.1046C51.3435 65.5913 51.1274 66.1218 50.7324 66.6585C50.6522 66.7584 50.5472 66.8582 50.467 66.9581C50.2818 67.1765 50.0719 67.3762 49.8374 67.5759C49.3251 68.0252 48.6769 68.4808 47.9177 68.9114C47.7511 69.0113 47.5844 69.1111 47.4239 69.1985C47.3931 69.2172 47.3745 69.2172 47.356 69.2297C47.1585 69.3483 46.961 69.4294 46.7449 69.548C46.5289 69.6478 46.3129 69.7477 46.0845 69.8475C44.8129 70.4155 43.3068 70.9522 41.6032 71.4015C41.4057 71.4701 41.1896 71.5201 40.9613 71.57C40.5971 71.6511 40.2144 71.7385 39.8379 71.8383C39.77 71.8383 39.7206 71.8571 39.6527 71.8696H39.6342C38.8564 72.0381 38.0602 72.1878 37.2207 72.3064C36.8874 72.3563 36.5417 72.4063 36.2084 72.4375C35.8627 72.5061 35.5109 72.5186 35.1529 72.5685C34.9862 72.5872 34.8196 72.5997 34.6529 72.6184C34.5727 72.6184 34.4863 72.6372 34.3875 72.6372C34.0912 72.6684 33.7888 72.7058 33.474 72.7183C33.1283 72.7495 32.7765 72.7682 32.4185 72.7869C31.9864 72.8057 31.542 72.8181 31.0975 72.8369C30.6346 72.8369 30.1902 72.8556 29.7272 72.8556C29.2643 72.8556 28.8199 72.8369 28.3569 72.8369C28.2582 72.8369 28.1717 72.8369 28.073 72.8181C27.7273 72.8181 27.3631 72.7994 27.0298 72.7869C26.6842 72.7682 26.3323 72.7557 26.0052 72.7183C25.6904 72.6996 25.3756 72.6684 25.0793 72.6372C24.7954 72.6184 24.5361 72.5872 24.2707 72.5685C23.925 72.5186 23.5732 72.4874 23.246 72.4375C22.9312 72.4063 22.635 72.3563 22.3202 72.3064C21.4437 72.1878 20.6165 72.0381 19.8079 71.8696C19.345 71.7697 18.9129 71.6698 18.487 71.57C18.271 71.5201 18.0549 71.4701 17.8389 71.4015C16.3328 71.0021 14.981 70.534 13.7712 70.016C13.4749 69.8975 13.191 69.7664 12.9132 69.6354C12.728 69.5542 12.549 69.4669 12.3824 69.3857C12.2651 69.3171 12.154 69.2547 12.0367 69.186C11.7528 69.055 11.4935 68.8989 11.2466 68.7367C10.9812 68.6056 10.7466 68.4371 10.5183 68.2874C9.85779 67.8193 9.31461 67.3512 8.91339 66.8832C8.79612 66.7334 8.67884 66.5961 8.58008 66.4463C8.26528 65.9783 8.11714 65.5289 8.11714 65.1108C8.11096 64.805 8.20972 64.4555 8.38873 64.1185Z" fill="#003B5A"/>
<path d="M104.89 65.2917C104.89 61.928 100.402 58.9948 93.7112 57.3722C100.402 55.7496 104.89 52.8165 104.89 49.4527C104.89 44.3415 94.5568 40.1976 81.8105 40.1976C69.0642 40.1976 58.7252 44.3415 58.7252 49.4527C58.7252 52.8165 63.2126 55.7496 69.9099 57.3722C63.2188 58.9948 58.7252 61.928 58.7252 65.2917C58.7252 68.7304 63.4163 71.726 70.3604 73.3236C63.3978 74.915 58.6943 77.9168 58.6943 81.3617C58.6943 86.4729 69.0334 90.6167 81.7797 90.6167C94.526 90.6167 104.865 86.4729 104.865 81.3617C104.865 77.923 100.18 74.9275 93.2297 73.3361C100.186 71.7384 104.89 68.7429 104.89 65.2917Z" fill="white"/>
<path d="M106.501 48.3668C106.501 47.3621 106.186 46.376 105.606 45.4587C105.421 45.1591 105.192 44.8533 104.927 44.5537C104.594 44.1356 104.18 43.7362 103.723 43.3493C103.557 43.2307 103.409 43.0996 103.242 42.9686C102.946 42.719 102.612 42.5005 102.285 42.2821C102.069 42.1323 101.853 41.995 101.625 41.8827C101.427 41.7641 101.23 41.6518 101.032 41.5332C100.816 41.4146 100.6 41.3148 100.384 41.1962C99.5075 40.7469 98.5508 40.3287 97.5076 39.9605C97.2113 39.842 96.8965 39.7421 96.5817 39.6423C95.8719 39.4113 95.125 39.1742 94.3473 38.9745C93.7485 38.8247 93.1374 38.6749 92.4955 38.5376C92.1498 38.469 91.7671 38.3879 91.4029 38.3192C90.724 38.2006 90.045 38.0883 89.3352 37.9822C89.1376 37.951 88.9525 37.9323 88.7549 37.9011C88.0945 37.82 87.4278 37.7513 86.755 37.6827C85.1502 37.5516 83.4836 37.4642 81.78 37.4642C71.5459 37.4642 62.7438 40.2039 58.9909 44.1169C57.7502 45.4212 57.0527 46.8628 57.0527 48.3668C57.0527 48.3668 57.0527 48.5166 57.0527 48.785V57.1102C57.0527 57.3598 57.0713 57.5969 57.1206 57.8278C57.1392 57.9963 57.17 58.1461 57.207 58.2959C57.4539 59.2819 57.9848 60.2181 58.7749 61.1042C57.67 62.3399 57.0527 63.7004 57.0527 65.1046C57.0527 65.1046 57.0527 70.4217 57.0527 73.4297V73.8666C57.0527 75.2895 57.6638 76.625 58.7749 77.8669C57.67 79.1026 57.0527 80.4568 57.0527 81.861C57.0527 81.861 57.0527 83.4337 57.0527 85.3371V90.623C57.0527 94.4673 61.571 97.8498 68.4164 99.8032C70.0706 100.271 71.873 100.658 73.7927 100.939C74.2556 101.008 74.7186 101.07 75.1815 101.126C75.9592 101.226 76.737 101.307 77.5456 101.357C78.9159 101.476 80.3417 101.526 81.78 101.526C95.4398 101.526 106.507 96.6267 106.507 90.623C106.507 88.133 106.507 81.861 106.507 81.861C106.507 80.4568 105.896 79.1026 104.785 77.8669C105.89 76.6313 106.507 75.2895 106.507 73.8666C106.507 71.3765 106.507 65.1046 106.507 65.1046C106.507 63.7004 105.896 62.3462 104.785 61.1042C105.89 59.8686 106.507 58.5143 106.507 57.1102C106.501 54.6201 106.501 48.3668 106.501 48.3668ZM81.7738 89.6183C80.3047 89.6183 78.8974 89.5496 77.5394 89.4498C75.1753 89.2501 73.0088 88.9006 71.0706 88.445C70.0953 88.2266 69.1694 87.977 68.3115 87.7086C65.6141 86.8411 63.4969 85.7865 62.108 84.7006C60.8365 83.7332 60.1575 82.7285 60.1575 81.8548C60.1575 81.5365 60.2563 81.2057 60.4415 80.8687C60.6081 80.5317 60.855 80.2197 61.1698 79.8827C63.071 81.1558 65.5523 82.223 68.4473 83.0405C70.1015 83.5086 71.8854 83.8955 73.7742 84.1763C74.3544 84.2575 74.9469 84.3448 75.5457 84.4072C76.2061 84.4884 76.8666 84.5383 77.5456 84.5945C78.9159 84.713 80.3417 84.763 81.78 84.763C90.3968 84.763 97.9891 82.8221 102.409 79.8827C102.656 80.1323 102.853 80.3819 103.001 80.6378C103.267 81.056 103.396 81.4741 103.396 81.8548C103.39 84.9564 94.7732 89.6183 81.7738 89.6183ZM102.779 66.6585C102.699 66.7584 102.594 66.8582 102.514 66.9581C102.335 67.1765 102.137 67.3762 101.884 67.5759C101.372 68.0252 100.724 68.4808 99.9828 68.9114C99.8161 69.0113 99.6556 69.1111 99.4705 69.1985C99.452 69.2172 99.4211 69.2172 99.4026 69.2297C99.2051 69.3483 99.0075 69.4294 98.7915 69.548C98.594 69.6478 98.3594 69.7477 98.1495 69.8475C96.8595 70.4155 95.3534 70.9522 93.6683 71.4015C93.4522 71.4701 93.2362 71.5201 93.0202 71.57C92.5881 71.6698 92.1622 71.7697 91.6992 71.8696H91.6807C90.903 72.0381 90.1067 72.1878 89.2673 72.3064C88.9339 72.3563 88.6068 72.4063 88.255 72.4375C87.9093 72.5061 87.5575 72.5186 87.1994 72.5685C86.9525 72.5997 86.7056 72.6184 86.4402 72.6372C86.1439 72.6684 85.8415 72.7058 85.5329 72.7183C85.1872 72.7495 84.8354 72.7682 84.4897 72.7869C84.0453 72.8057 83.5947 72.8181 83.1503 72.8369C82.7058 72.8369 82.2429 72.8556 81.78 72.8556C81.317 72.8556 80.8726 72.8369 80.422 72.8369C79.9776 72.8181 79.527 72.8057 79.0825 72.7869C78.7369 72.7682 78.3851 72.7557 78.0579 72.7183C77.8789 72.6996 77.7122 72.6996 77.5456 72.6684C77.3974 72.6684 77.2616 72.6496 77.132 72.6372C76.8481 72.6184 76.5888 72.5872 76.3234 72.5685C75.9778 72.5186 75.6259 72.4874 75.2988 72.4375C74.984 72.4063 74.6877 72.3563 74.3729 72.3064C73.626 72.2066 72.8977 72.088 72.2249 71.9382C72.1076 71.9195 71.9903 71.8883 71.873 71.8696H71.8545C71.4101 71.7697 70.9595 71.6698 70.5336 71.57C70.3175 71.5201 70.1015 71.4701 69.904 71.4015C69.3608 71.2517 68.83 71.1019 68.33 70.9334C67.4226 70.6464 66.5955 70.3468 65.8301 70.016C65.5338 69.8975 65.2314 69.7664 64.9721 69.6354C64.7746 69.5542 64.6079 69.4669 64.4413 69.3857C64.3116 69.3171 64.1944 69.2547 64.0771 69.186C63.7932 69.055 63.5339 68.8989 63.287 68.7367C63.0216 68.6056 62.7932 68.4371 62.5772 68.2874C61.8982 67.8193 61.355 67.3512 60.9538 66.8832C60.8365 66.7334 60.7377 66.5961 60.6205 66.4463C60.3242 65.9783 60.1575 65.5289 60.1575 65.1108C60.1575 64.8113 60.2563 64.4555 60.4415 64.1248C60.6081 63.7878 60.855 63.4695 61.1698 63.1387C64.1635 65.1295 68.5645 66.6523 73.7556 67.4386C74.4346 67.5385 75.1259 67.6258 75.842 67.707C76.4037 67.7756 76.9654 67.8255 77.5456 67.8567C78.9159 67.9753 80.3417 68.0252 81.78 68.0252C90.3968 68.0252 97.9891 66.0844 102.409 63.145C102.656 63.3946 102.853 63.663 103.001 63.9126C103.267 64.3307 103.396 64.7301 103.396 65.1171C103.39 65.5913 103.193 66.1281 102.779 66.6585ZM91.7116 55.1193C88.8167 55.7372 85.4773 56.1054 81.7738 56.1054C78.0703 56.1054 74.7309 55.7372 71.836 55.1193C64.5771 53.5841 60.1575 50.5574 60.1575 48.3668C60.1575 48.0486 60.2563 47.7178 60.4415 47.3621C61.9969 44.3665 70.1138 40.6033 81.7738 40.6033C93.1374 40.6033 101.174 44.1793 102.995 47.1437C103.26 47.5618 103.39 47.9612 103.39 48.3606C103.39 50.5574 98.9952 53.5841 91.7116 55.1193Z" fill="#003B5A"/>
<path d="M75.9222 82.7784C75.9222 79.4146 71.4348 76.4814 64.7376 74.8588C71.4286 73.2362 75.9222 70.3031 75.9222 66.9393C75.9222 61.8281 65.5894 57.6843 52.8369 57.6843C40.0906 57.6843 29.7516 61.8281 29.7516 66.9393C29.7516 70.3031 34.239 73.2362 40.9362 74.8588C34.2452 76.4814 29.7516 79.4146 29.7516 82.7784C29.7516 86.217 34.4427 89.2126 41.3868 90.8102C34.4242 92.4016 29.7207 95.4034 29.7207 98.8483C29.7207 103.96 40.0535 108.103 52.806 108.103C65.5585 108.103 75.8914 103.96 75.8914 98.8483C75.8914 95.4097 71.2064 92.4141 64.2561 90.8165C71.2187 89.2251 75.9222 86.2233 75.9222 82.7784Z" fill="white"/>
<path d="M65.1514 74.9525C65.0218 74.9213 64.8675 74.8838 64.7379 74.8526C66.639 74.4033 68.3426 73.8291 69.8302 73.1801C68.2932 72.8119 66.8859 72.375 65.6267 71.8758C64.7193 72.1441 63.7564 72.3938 62.7318 72.6122C60.9973 72.9804 59.09 73.2675 57.0407 73.4297V73.8666C57.0407 75.2895 57.6518 76.625 58.7628 77.8669C57.6579 79.1026 57.0407 80.4568 57.0407 81.861C57.0407 81.861 57.0407 83.4337 57.0407 85.3371C58.232 85.256 59.3924 85.1187 60.5158 84.9689C59.3245 83.8643 58.6764 82.6411 58.6764 81.3555C58.6888 78.8654 61.1516 76.6125 65.1514 74.9525ZM57.0469 73.8666V73.4297C56.2012 73.4984 55.3432 73.5483 54.4482 73.5608C53.905 73.5795 53.3557 73.592 52.8125 73.592C49.3559 73.592 46.2264 73.255 43.4858 72.7245C42.7389 72.943 41.9797 73.1427 41.1711 73.3299C48.1152 74.9213 52.8125 77.9106 52.8125 81.3555C52.8125 82.8283 51.9545 84.2138 50.4299 85.4557C51.2076 85.4869 52.0039 85.5056 52.8125 85.5056C53.3557 85.5056 53.905 85.5056 54.4482 85.4869C55.3247 85.4557 56.2012 85.4058 57.0469 85.3371C57.0469 83.4337 57.0469 81.861 57.0469 81.861C57.0469 80.4568 57.6579 79.1026 58.769 77.8669C57.6579 76.625 57.0469 75.2895 57.0469 73.8666ZM69.0093 57.6156C65.6884 56.3425 61.5837 55.4563 57.053 55.1256C56.2074 55.0569 55.3309 55.007 54.4544 54.9945C53.9112 54.9633 53.3619 54.9633 52.8187 54.9633C51.115 54.9633 49.4608 55.0445 47.8745 55.1817C47.8559 55.1817 47.8436 55.1817 47.8436 55.1817C36.5664 56.2052 28.0791 60.5862 28.0791 65.8472C28.0791 65.8472 28.0791 66.7521 28.0791 68.0065V74.6092C28.0791 76.0134 28.7087 77.3677 29.8136 78.6033C28.7087 79.839 28.0791 81.1808 28.0791 82.6037C28.0791 82.6037 28.0791 83.5086 28.0791 84.763V91.3657C28.0791 92.7886 28.7087 94.1241 29.8136 95.366C28.7087 96.6017 28.0791 97.9434 28.0791 99.3601C28.0791 99.3601 28.0791 100.246 28.0791 101.501V108.122C28.0791 114.126 39.1588 119.006 52.8248 119.006C66.4723 119.006 77.5521 114.126 77.5521 108.122V101.357C77.5521 100.171 77.5521 99.3476 77.5521 99.3476C77.5521 97.9247 76.941 96.5892 75.8299 95.3535C76.9348 94.1179 77.5521 92.7761 77.5521 91.3532V84.6007C77.5521 83.4274 77.5521 82.5912 77.5521 82.5912C77.5521 81.1683 76.941 79.8328 75.8299 78.5908C76.9348 77.3552 77.5521 76.0009 77.5521 74.5968V67.838C77.5521 66.6648 77.5521 65.8285 77.5521 65.8285C77.5397 62.5458 74.2312 59.6064 69.0093 57.6156ZM73.8177 84.1389C73.7992 84.1576 73.7868 84.1701 73.7683 84.1888C73.7004 84.2887 73.6202 84.3698 73.5399 84.4572C73.3733 84.6756 73.1572 84.8753 72.9288 85.075C72.4165 85.5243 71.7684 85.9799 71.0092 86.4105C70.8425 86.5104 70.6758 86.6102 70.5154 86.6976C70.4845 86.6976 70.466 86.7163 70.4475 86.7288C70.2499 86.8474 70.0524 86.9285 69.8364 87.0284C69.6203 87.1469 69.4043 87.2468 69.1759 87.3466C68.892 87.4652 68.6142 87.5775 68.3179 87.7148C67.7748 87.9145 67.213 88.133 66.5958 88.3202C65.9847 88.5386 65.3551 88.7196 64.6946 88.8881C64.4971 88.9568 64.2626 89.0067 64.0527 89.0566C63.6391 89.1752 63.1947 89.275 62.7441 89.3749H62.7256C61.9479 89.5434 61.1516 89.6744 60.3121 89.793C59.9788 89.8617 59.6332 89.9116 59.2875 89.9428C58.9542 89.9927 58.59 90.0239 58.2258 90.0739C57.9789 90.1051 57.732 90.1238 57.4851 90.1425C57.337 90.1612 57.2012 90.1737 57.053 90.1737C56.8864 90.1924 56.7259 90.1924 56.5592 90.2049C56.2259 90.2361 55.8617 90.2736 55.5161 90.2736C55.1704 90.3048 54.8186 90.3235 54.4606 90.3048C54.3803 90.3235 54.2754 90.3235 54.1951 90.3235C53.7322 90.3422 53.2878 90.3547 52.8248 90.3547C52.3619 90.3547 51.9175 90.336 51.4545 90.3235C51.0101 90.3235 50.5595 90.3048 50.1336 90.2736C49.788 90.2736 49.4361 90.2423 49.109 90.2236C48.7757 90.1924 48.4794 90.1737 48.1646 90.1425C47.8991 90.1238 47.6337 90.0926 47.3745 90.0739C47.0288 90.0239 46.677 89.9927 46.3498 89.9428C46.0165 89.9116 45.7202 89.8617 45.4054 89.8117C44.5475 89.6807 43.7203 89.5434 42.9056 89.3749C42.6216 89.3062 42.3439 89.2563 42.0784 89.1877C41.9118 89.1377 41.7451 89.1065 41.5846 89.0566C41.3686 89.0067 41.1526 88.9568 40.9365 88.8881C40.5723 88.7883 40.2082 88.6884 39.844 88.5885C39.844 88.5885 39.844 88.5885 39.8255 88.5885C38.7514 88.2515 37.7577 87.9021 36.8626 87.5151C36.5664 87.3966 36.2824 87.2655 36.0047 87.1345C35.8195 87.0533 35.6405 86.9659 35.4738 86.8661C35.3565 86.8162 35.2454 86.7475 35.1282 86.6789C34.8442 86.5478 34.585 86.3793 34.3381 86.2295C34.0726 86.0798 33.8257 85.93 33.6097 85.7615C33.0974 85.412 32.6653 85.0563 32.3382 84.7068C32.2085 84.5882 32.1036 84.4759 32.0048 84.3573C31.8752 84.2263 31.7703 84.089 31.6715 83.9392C31.3567 83.4711 31.2086 83.0218 31.2086 82.6037C31.2086 82.2854 31.295 81.9484 31.4925 81.5989C31.6592 81.2806 31.8876 80.9499 32.2209 80.6316C34.1714 81.9172 36.7207 83.0218 39.6958 83.8581C42.3253 84.5757 45.3067 85.0937 48.5102 85.3434C49.1398 85.3933 49.7818 85.4245 50.4484 85.4619C51.2262 85.4931 52.0224 85.5118 52.831 85.5118C53.3742 85.5118 53.9236 85.5118 54.4667 85.4931C55.3432 85.4619 56.2197 85.412 57.0654 85.3434C58.2567 85.2622 59.4171 85.1249 60.5405 84.9751C61.0714 84.894 61.596 84.8066 62.1269 84.7068C64.4416 84.3074 66.5773 83.7395 68.4599 83.053C70.3796 82.3665 72.0647 81.549 73.435 80.6253C73.6819 80.875 73.8794 81.1308 74.0461 81.3805C74.293 81.7986 74.4411 82.2167 74.4411 82.6037C74.4349 83.0842 74.2189 83.6022 73.8177 84.1389ZM73.7868 100.939C71.54 103.816 63.7009 107.092 52.8125 107.092C42.5722 107.092 35.0479 104.203 32.3196 101.476C31.5728 100.739 31.1962 100.003 31.1962 99.3539C31.1962 99.0356 31.2827 98.7048 31.4802 98.3491C31.6468 98.0308 31.8752 97.6938 32.2085 97.3631C34.1591 98.6674 36.7207 99.772 39.7329 100.59C43.5228 101.657 48.0041 102.262 52.8187 102.262C58.7381 102.262 64.1823 101.345 68.4167 99.8032C70.3487 99.098 72.04 98.2805 73.4288 97.3631C73.6757 97.6314 73.8732 97.881 74.0399 98.1307C74.2868 98.5488 74.4349 98.9669 74.4349 99.3476C74.4349 99.8531 74.2004 100.39 73.7868 100.939ZM73.7559 67.4324C72.8486 68.6181 70.9783 69.8912 68.3303 70.9459C67.5032 71.2829 66.6081 71.6012 65.6329 71.882C64.7255 72.1504 63.7626 72.4 62.738 72.6184C61.0035 72.9866 59.0961 73.2737 57.0469 73.436C56.2012 73.5046 55.3432 73.5546 54.4482 73.567C53.905 73.5858 53.3557 73.5982 52.8125 73.5982C49.3559 73.5982 46.2264 73.2612 43.4858 72.7308C43.2697 72.6996 43.0722 72.6496 42.8747 72.6122C41.8007 72.3813 40.776 72.1254 39.8316 71.8446C36.2762 70.7587 33.6776 69.3358 32.3258 67.9503C31.5789 67.2139 31.2024 66.4962 31.2024 65.841C31.2024 65.5227 31.2888 65.1919 31.4863 64.8549C32.6776 62.5146 37.8873 59.7188 45.6462 58.6204C47.8436 58.2834 50.2447 58.1024 52.8248 58.1024C53.3372 58.1024 53.8495 58.1024 54.3433 58.1211C55.3371 58.1586 56.2753 58.2085 57.2074 58.3084C59.7196 58.5081 62.0219 58.895 64.0712 59.3943C69.3487 60.7173 72.9041 62.7892 74.0461 64.6427C74.293 65.0609 74.4411 65.4603 74.4411 65.8472C74.4349 66.3402 74.2004 66.8769 73.7559 67.4324Z" fill="#003B5A"/>
<path d="M81.1444 69.0675C63.4909 70.6589 48.7632 55.7684 50.3372 37.9198C51.5409 24.2401 62.4416 13.2251 75.9718 12.0019C93.6253 10.4105 108.353 25.301 106.779 43.1496C105.569 56.8356 94.6746 67.8505 81.1444 69.0675ZM80.7679 16.152C65.6822 14.7916 53.0963 27.5165 54.442 42.7689C55.4728 54.4579 64.7871 63.8752 76.3483 64.9174C91.434 66.2779 104.02 53.5529 102.674 38.3005C101.643 26.6116 92.329 17.1943 80.7679 16.152Z" fill="white"/>
<path d="M107.97 58.1024C115.667 44.9594 113.958 27.4915 102.668 16.2519C89.323 2.75936 67.9413 2.75936 54.6024 15.9024C41.0846 29.0455 40.9179 51.5309 54.2568 65.0172C65.5464 76.4316 82.6505 78.1603 95.8227 70.378L101.125 75.7388L113.273 63.457L107.97 58.1024ZM78.3791 67.6134C62.9909 67.6134 50.5965 54.3642 51.7692 38.5564C52.7507 25.3696 63.281 14.7167 76.3298 13.7306C91.9649 12.5449 105.063 25.0763 105.063 40.6345C105.063 55.5063 93.2611 67.6134 78.3791 67.6134Z" fill="#003B5A"/>
<path d="M131.407 81.7986C134.827 85.256 134.827 90.623 131.407 94.0804C127.988 97.5378 122.685 97.5378 119.26 94.0804L105.575 80.2447L117.723 67.9628L131.407 81.7986Z" fill="#003B5A"/>
<path d="M113.272 63.4633L117.723 68.1313L105.748 80.4132L101.131 75.7451L113.272 63.4633Z" fill="white"/>
<path d="M101.174 76.781C100.662 76.781 100.156 76.3629 100.106 75.8512C100.069 75.433 100.254 75.2583 100.446 74.8838L112.421 62.602C112.76 62.2525 113.445 62.2525 113.958 62.602C114.297 62.9453 114.297 63.638 113.958 64.156L101.81 76.4378C101.649 76.7623 101.489 76.781 101.174 76.781Z" fill="#003B5A"/>
<path d="M105.748 81.4492C105.409 81.4492 105.236 81.2744 105.063 81.1059C104.724 80.7564 104.724 80.0699 105.063 79.5457L117.211 67.2639C117.556 66.9207 118.235 66.9207 118.754 67.2639C119.093 67.6134 119.093 68.2999 118.754 68.8179L106.606 81.0997C106.261 81.2807 105.921 81.4492 105.748 81.4492Z" fill="#003B5A"/>
<path d="M125.247 97.7063C122.852 97.7063 120.284 96.8388 118.408 94.9416L100.446 76.6063L95.6558 71.7634C81.7984 79.5457 64.6943 77.1243 53.4047 65.7099C46.7322 58.9699 43.1398 49.9707 43.3126 40.2913C43.3126 30.6056 47.0779 21.6127 53.917 15.0412C60.5896 8.46341 69.4842 4.83128 78.7183 5.00603C88.1253 5.00603 96.8533 8.81289 103.52 15.3844C114.636 26.624 117.031 44.0919 109.334 57.9277L132.259 81.1059C134.142 83.0093 134.993 85.4307 134.993 88.0206C134.993 90.6168 133.969 93.0382 132.259 94.9416C130.21 96.6703 127.815 97.7063 125.247 97.7063ZM101.816 74.8776L119.951 93.2067C121.321 94.5921 123.204 95.4534 125.253 95.4534C127.309 95.4534 129.185 94.5859 130.555 93.2067C131.926 91.8212 132.777 89.9241 132.777 87.8459C132.777 85.7677 131.92 83.8643 130.555 82.4851L107.118 58.9636C106.779 58.6142 106.779 58.0962 106.945 57.5782C114.643 44.4352 112.593 27.66 101.816 16.9321C88.9894 3.96382 68.1201 3.96382 55.2873 16.5826C48.9605 22.8109 45.3681 31.2859 45.3681 40.2788C45.3681 49.4465 48.621 57.9214 54.9478 64.1435C65.7251 75.0398 82.1441 77.1118 95.3163 69.3295C95.6558 69.1548 96.3409 69.1548 96.6866 69.5043L101.816 74.8776Z" fill="white"/>
</svg>
