<svg width="130" height="124" viewBox="0 0 130 124" fill="none" xmlns="http://www.w3.org/2000/svg">
<g clip-path="url(#clip0_798_4100)">
<path d="M118.752 12.3774H10.0586V105.483H118.752V12.3774Z" fill="white"/>
<path d="M118.814 43.1544V38.4919H61.4209V12.3774H57.3615V38.4919H32.6051V12.3774H28.5457V38.4919H10.059V43.1544H28.5457V81.5043H10.0479V86.1668H28.5457V105.476H32.6051V86.1668H57.3615V105.476H61.4209V69.0516H80.8795V105.476H84.9389V69.0516H118.753V64.3891H84.9389V43.1544H118.814ZM32.6051 81.5043V43.1544H57.3615V81.5043H32.6051ZM80.8739 64.3891H61.4209V43.1544H80.8795V64.3891H80.8739Z" fill="#E0E0E0"/>
<path d="M54.9344 45.978H34.7539V59.6905H54.9344V45.978Z" fill="#EFEFEF"/>
<path d="M28.5457 43.1544H10.0479V81.5043H28.5457V43.1544Z" fill="#686868"/>
<path d="M57.3618 12.3774H32.6055V38.4919H57.3618V12.3774Z" fill="#8C8C8C"/>
<path d="M101.893 62.847C107.877 62.847 112.727 61.4662 112.727 59.7628C112.727 58.0594 107.877 56.6786 101.893 56.6786C95.9093 56.6786 91.0586 58.0594 91.0586 59.7628C91.0586 61.4662 95.9093 62.847 101.893 62.847Z" fill="#EFEFEF"/>
<path opacity="0.4" d="M118.752 107.155H10.0586L118.752 14.0571V107.155Z" fill="white"/>
<path d="M76.5476 24.374H63.4697V35.8928H76.5476V24.374Z" fill="#EFEFEF"/>
<path d="M78.358 71.6364H64.1084V88.0058H78.358V71.6364Z" fill="#EFEFEF"/>
<path d="M118.747 71.6364H104.497V88.0058H118.747V71.6364Z" fill="#EFEFEF"/>
<path d="M101.843 71.6364H87.5938V102.269H101.843V71.6364Z" fill="#EFEFEF"/>
<path d="M28.5457 86.1669H10.0479V105.476H28.5457V86.1669Z" fill="#8C8C8C"/>
<path d="M5 19.2771V106.692C5 113.469 9.27044 119 14.4849 119H115.51C120.73 119 124.994 113.461 124.994 106.692V19.2771C124.994 12.5005 120.73 6.96924 115.51 6.96924H14.4849C9.27044 6.96924 5 12.5005 5 19.2771ZM11.8805 16.6056H117.731V100.741H11.8805V16.6056Z" fill="#003B5A"/>
<path d="M116.426 23.0709C116.421 22.9551 116.409 22.8465 116.404 22.7306C116.387 22.4845 116.376 22.2456 116.354 22.0066C116.343 21.8763 116.326 21.746 116.315 21.6229C116.293 21.3985 116.265 21.174 116.237 20.9569C116.221 20.8265 116.204 20.7035 116.182 20.5731C116.148 20.3487 116.115 20.1243 116.071 19.9071C116.048 19.7912 116.026 19.6681 116.004 19.5523C115.96 19.3134 115.91 19.0817 115.854 18.8428C115.832 18.7487 115.815 18.6546 115.787 18.5604C115.715 18.2636 115.638 17.9668 115.554 17.6699C115.549 17.641 115.538 17.6192 115.532 17.5903C115.343 16.9242 115.121 16.2726 114.877 15.65C114.86 15.6138 114.849 15.5776 114.832 15.5414C114.721 15.2663 114.61 14.9984 114.494 14.7305C114.471 14.6798 114.449 14.6364 114.427 14.5857C114.31 14.3323 114.188 14.0789 114.06 13.8255C114.038 13.7821 114.016 13.7386 113.994 13.7024C113.861 13.4418 113.716 13.1812 113.572 12.9278C113.561 12.906 113.55 12.8843 113.538 12.8626C110.773 8.07701 106.303 5.07244 101.305 5.391C93.941 5.86159 87.9713 13.659 87.6381 23.2664C87.5493 25.7424 87.8325 28.1171 88.4156 30.3108C88.4156 30.3181 88.4211 30.3253 88.4211 30.3326C88.6821 31.3172 89.032 32.2584 89.4485 33.1561L90.4369 35.2992L102.032 60.5376L113.638 35.2774L114.616 33.1561C114.721 32.9317 114.816 32.7073 114.91 32.4756C115.099 32.0195 115.271 31.5489 115.427 31.0638C115.504 30.8249 115.571 30.5787 115.638 30.3326C115.638 30.3253 115.643 30.3181 115.643 30.3108C115.899 29.3479 116.098 28.3488 116.232 27.3135C116.365 26.2854 116.437 25.2284 116.437 24.1497C116.454 23.7804 116.443 23.4257 116.426 23.0709Z" fill="#003B5A" stroke="white" stroke-miterlimit="10"/>
<path d="M102.043 33.6123C106.119 33.6123 109.424 29.3044 109.424 23.9904C109.424 18.6764 106.119 14.3685 102.043 14.3685C97.9673 14.3685 94.6631 18.6764 94.6631 23.9904C94.6631 29.3044 97.9673 33.6123 102.043 33.6123Z" fill="white"/>
</g>
<defs>
<clipPath id="clip0_798_4100">
<rect width="120" height="114" fill="white" transform="translate(5 5)"/>
</clipPath>
</defs>
</svg>
