<svg width="132" height="124" viewBox="0 0 132 124" fill="none" xmlns="http://www.w3.org/2000/svg">
<g clip-path="url(#clip0_798_4101)">
<path d="M120.931 10.8104H10.6406V86.215H120.931V10.8104Z" fill="white"/>
<path d="M102.135 43.1088C100.916 43.1088 99.9167 42.0702 99.9167 40.7882V30.7046L82.2171 46.3849C79.1345 49.1151 74.2622 48.9429 71.3602 45.9992L69.2431 43.8507C67.9276 42.5153 65.4943 42.3491 64.0263 43.4946L28.9942 70.7898C28.599 71.0925 28.1304 71.2468 27.6731 71.2468C26.9956 71.2468 26.3294 70.9263 25.8946 70.315C25.1663 69.2823 25.3696 67.8341 26.3519 67.0685L61.3841 39.7793C64.6248 37.2569 69.435 37.5833 72.337 40.5211L74.4541 42.6696C75.7414 43.9753 77.9884 44.0584 79.3603 42.8477L96.772 27.4225L88.2016 27.8024C86.9539 27.838 85.9433 26.8587 85.8925 25.5827C85.8417 24.3007 86.7902 23.2205 88.0153 23.173L104.36 22.449V40.7882C104.354 42.0702 103.361 43.1088 102.135 43.1088Z" fill="#003B5A"/>
<path d="M95.9148 41.2452L87.5703 48.6343V73.8701H98.4328V41.2452H95.9148Z" fill="#003B5A"/>
<path d="M72.462 52.0232L71.1748 50.7175V73.876H82.0317V53.3171C78.9999 55.0442 74.9857 54.5872 72.462 52.0232Z" fill="#003B5A"/>
<path d="M64.8112 49.762L53.96 58.2194V73.8701H64.8112V49.762Z" fill="#003B5A"/>
<path d="M47.4621 63.2879L36.5996 71.7453V73.8701H47.4621V63.2879Z" fill="#003B5A"/>
<path d="M5 15.0895V86.7491C5 92.3043 9.34162 96.8386 14.643 96.8386H117.351C122.658 96.8386 126.994 92.2983 126.994 86.7491V15.0895C126.994 9.53436 122.658 5 117.351 5H14.643C9.34162 5 5 9.5403 5 15.0895ZM11.9951 12.9055H119.61V81.8764H11.9951V12.9055ZM53.2038 106.436C53.2038 106.436 53.966 103.468 55.3887 103.355C56.0775 103.302 61.0289 103.296 65.9181 103.308C70.8074 103.296 75.7531 103.296 76.4476 103.355C77.8646 103.468 78.6325 106.436 78.6325 106.436C80.0778 110.507 81.5852 112.614 82.6184 113.67H95.2424V119H36.5995V113.67H49.2235C50.2454 112.614 51.7641 110.501 53.2038 106.436Z" fill="#003B5A"/>
</g>
<defs>
<clipPath id="clip0_798_4101">
<rect width="122" height="114" fill="white" transform="translate(5 5)"/>
</clipPath>
</defs>
</svg>
