<svg width="136" height="124" viewBox="0 0 136 124" fill="none" xmlns="http://www.w3.org/2000/svg">
<path d="M125.408 30.2622H7.8418V88.5523H125.408V30.2622Z" fill="white"/>
<path d="M123.613 26.8252H14.567C9.92436 26.8252 5 29.1875 5 32.9613V95.6045C5 99.3684 9.92436 104.445 14.567 104.445H56.3996C56.3996 104.445 58.1451 116.103 42.7167 116.103V119H93.2894V116.103C77.861 116.103 81.7625 104.445 81.7625 104.445H123.613C128.238 104.445 131 99.3684 131 95.6045V32.9613C131 29.1875 128.238 26.8252 123.613 26.8252ZM69.1086 100.537C65.8257 100.537 63.1736 98.3878 63.1736 95.7382C63.1736 93.0837 65.8257 90.9344 69.1086 90.9344C72.3915 90.9344 75.0436 93.0837 75.0436 95.7382C75.0436 98.3878 72.3854 100.537 69.1086 100.537ZM122.431 85.7343H12.7173V33.0603H122.431V85.7343Z" fill="#003B5A"/>
<path d="M101.374 29.9404V74.4726H35.8379V29.9404V21.4767V6.11426H89.2587C93.3929 9.45715 97.2454 12.5722 101.374 15.9102V21.4767V29.9404Z" fill="white"/>
<path d="M101.374 75.8098H35.8383C35.0114 75.8098 34.1846 75.1412 34.1846 74.4727V6.33716C34.1846 5.66858 35.0114 5 35.8383 5H89.259C89.8103 5 90.0859 5.22286 90.3615 5.44572L102.476 15.2416C102.752 15.4645 103.028 15.9102 103.028 16.1331V74.6955C103.028 75.1412 102.201 75.8098 101.374 75.8098ZM37.7615 73.1355H99.7202V16.5788L88.7078 7.67431H37.7615V73.1355Z" fill="#003B5A"/>
<path d="M49.8828 28.6032C49.3316 28.6032 49.056 28.3803 48.7804 28.1575L45.2035 25.2652C44.6522 24.8195 44.6522 23.9281 45.2035 23.2595C45.7547 22.8138 46.8572 22.8138 47.684 23.2595L50.1646 25.2652L57.6001 19.253C58.1514 18.8073 59.2538 18.8073 60.0807 19.253C60.6319 19.6987 60.6319 20.5901 60.0807 21.2587L51.5304 28.1575C50.7036 28.6032 50.1585 28.6032 49.8828 28.6032Z" fill="#003B5A"/>
<path d="M87.6049 28.6033H65.2982C64.4714 28.6033 63.6445 27.9347 63.6445 27.2661C63.6445 26.5975 64.4714 25.929 65.2982 25.929H87.6049C88.4317 25.929 89.2586 26.5975 89.2586 27.2661C89.2586 27.9347 88.4317 28.6033 87.6049 28.6033Z" fill="#003B5A"/>
<path d="M75.4902 23.0367H65.0228C64.196 23.0367 63.3691 22.3682 63.3691 21.6996C63.3691 21.031 64.196 20.3624 65.0228 20.3624H75.4841C76.3109 20.3624 77.1378 21.031 77.1378 21.6996C77.1439 22.3682 76.317 23.0367 75.4902 23.0367Z" fill="#003B5A"/>
<path d="M49.8828 46.6401C49.3316 46.6401 49.056 46.4173 48.7804 46.1944L45.2035 43.2972C44.6522 42.8515 44.6522 41.9601 45.2035 41.2915C45.7547 40.8458 46.8572 40.8458 47.684 41.2915L50.1646 43.2972L57.6001 37.285C58.1514 36.8393 59.2538 36.8393 60.0807 37.285C60.6319 37.7307 60.6319 38.6221 60.0807 39.2907L50.9792 46.1944C50.7036 46.4173 50.1585 46.6401 49.8828 46.6401Z" fill="#003B5A"/>
<path d="M87.6049 46.4171H65.2982C64.4714 46.4171 63.6445 45.7485 63.6445 45.08C63.6445 44.4114 64.4714 43.7428 65.2982 43.7428H87.6049C88.4317 43.7428 89.2586 44.4114 89.2586 45.08C89.2586 45.9714 88.4317 46.4171 87.6049 46.4171Z" fill="#003B5A"/>
<path d="M75.4902 40.8506H65.0228C64.196 40.8506 63.3691 40.182 63.3691 39.5134C63.3691 38.8448 64.196 38.1763 65.0228 38.1763H75.4841C76.3109 38.1763 77.1378 38.8448 77.1378 39.5134C77.1439 40.4049 76.317 40.8506 75.4902 40.8506Z" fill="#003B5A"/>
<path d="M49.8828 64.6767C49.3316 64.6767 49.056 64.4539 48.7804 64.231L45.2035 61.3338C44.6522 60.8881 44.6522 59.9967 45.2035 59.3281C45.7547 58.8824 46.8572 58.8824 47.684 59.3281L50.1646 61.3338L57.6001 55.3216C58.1514 54.8759 59.2538 54.8759 60.0807 55.3216C60.6319 55.7673 60.6319 56.6588 60.0807 57.3273L51.5304 64.231C50.7036 64.4539 50.1585 64.6767 49.8828 64.6767Z" fill="#003B5A"/>
<path d="M87.6049 64.6766H65.2982C64.4714 64.6766 63.6445 64.0081 63.6445 63.3395C63.6445 62.6709 64.4714 62.0023 65.2982 62.0023H87.6049C88.4317 62.0023 89.2586 62.6709 89.2586 63.3395C89.2586 64.0081 88.4317 64.6766 87.6049 64.6766Z" fill="#003B5A"/>
<path d="M75.4902 59.1101H65.0228C64.196 59.1101 63.3691 58.4415 63.3691 57.7729C63.3691 57.1044 64.196 56.4358 65.0228 56.4358H75.4841C76.3109 56.4358 77.1378 57.1044 77.1378 57.7729C77.1439 58.4415 76.317 59.1101 75.4902 59.1101Z" fill="#003B5A"/>
</svg>
